<?xml version="1.0" standalone="no"?><!DOCTYPE svg PUBLIC "-//W3C//DTD SVG 1.1//EN" "http://www.w3.org/Graphics/SVG/1.1/DTD/svg11.dtd"><svg t="1619411086455" class="icon" viewBox="0 0 1024 1024" version="1.1" xmlns="http://www.w3.org/2000/svg" p-id="15416" xmlns:xlink="http://www.w3.org/1999/xlink" width="16" height="16"><defs><style type="text/css"></style></defs><path d="M288.29452 832.125995c0 15.954367-13.053294 29.007661-29.007661 29.007661l-71.167876 0c-15.954367 0-29.007661-13.053294-29.007661-29.007661l0-643.973754c0-15.954367 13.053294-29.007661 29.007661-29.007661l71.167876 0c15.954367 0 29.007661 13.053294 29.007661 29.007661L288.29452 832.125995z" p-id="15417" fill="#ffffff"></path><path d="M391.806036 188.152241c0-15.954367 10.468422-21.211091 23.264866-11.682064l425.214425 316.65187c12.795421 9.529027 12.795421 25.122167 0 34.650171l-425.214425 316.650847c-12.796444 9.529027-23.264866 4.272303-23.264866-11.682064L391.806036 188.152241z" p-id="15418" fill="#ffffff"></path></svg>